<svg xmlns="http://www.w3.org/2000/svg" width="340" height="460" viewBox="0 0 340 460">
  <defs>
    <style>
      @import url('https://fonts.googleapis.com/css2?family=Cormorant+Garamond:ital,wght@0,300;0,400;1,300;1,400&amp;family=Inter:wght@300;400;500&amp;display=swap');
    </style>
  </defs>

  <!-- Card background -->
  <rect width="340" height="460" rx="14" fill="#FAF7F2"/>

  <!-- "I made something for you." -->
  <text x="170" y="108" text-anchor="middle"
        font-family="Cormorant Garamond, serif" font-size="23" font-weight="300"
        font-style="italic" fill="#1a1a18">
    I made something for you.
  </text>

  <!-- "Open this when you're alone." -->
  <text x="170" y="142" text-anchor="middle"
        font-family="Cormorant Garamond, serif" font-size="16.5" font-weight="300"
        fill="#6b6860">
    Open this when you're alone.
  </text>

  <!-- Gold line -->
  <line x1="154" y1="178" x2="186" y2="178" stroke="#c4a670" stroke-width="1"/>

  <!-- QR container (white rounded rect) -->
  <rect x="100" y="210" width="140" height="140" rx="10" fill="#ffffff"/>

  <!-- QR Code -->
  <svg x="110" y="220" width="120" height="120" viewBox="0 0 29 29" shape-rendering="crispEdges">
    <path fill="#ffffff" d="M0 0h29v29H0z"/>
    <path stroke="#1a1a18" d="M0 0.5h7m3 0h1m2 0h1m2 0h1m2 0h1m2 0h7M0 1.5h1m5 0h1m1 0h1m2 0h2m1 0h3m1 0h2m2 0h1m5 0h1M0 2.5h1m1 0h3m1 0h1m3 0h1m2 0h2m1 0h1m1 0h2m2 0h1m1 0h3m1 0h1M0 3.5h1m1 0h3m1 0h1m3 0h2m1 0h3m2 0h1m3 0h1m1 0h3m1 0h1M0 4.5h1m1 0h3m1 0h1m1 0h1m1 0h1m3 0h1m3 0h3m1 0h1m1 0h3m1 0h1M0 5.5h1m5 0h1m3 0h4m3 0h3m2 0h1m5 0h1M0 6.5h7m1 0h1m1 0h1m1 0h1m1 0h1m1 0h1m1 0h1m1 0h1m1 0h7M9 7.5h1m1 0h4m1 0h3m1 0h1M0 8.5h1m1 0h1m1 0h1m1 0h1m3 0h3m1 0h2m1 0h1m1 0h2m3 0h1m2 0h1M2 9.5h2m1 0h1m2 0h3m3 0h2m1 0h2m1 0h3m2 0h1m2 0h1M0 10.5h4m2 0h1m1 0h3m2 0h1m3 0h2m2 0h1m1 0h2m1 0h3M0 11.5h2m1 0h3m5 0h1m3 0h1m1 0h1m2 0h5m2 0h1M1 12.5h1m2 0h3m2 0h2m1 0h1m3 0h2m1 0h4m2 0h1m1 0h2M0 13.5h2m5 0h1m1 0h2m1 0h2m1 0h3m2 0h1m1 0h1m2 0h1m2 0h1M0 14.5h1m2 0h5m2 0h2m2 0h5m2 0h5m1 0h2M2 15.5h1m6 0h1m2 0h3m1 0h4m1 0h2m1 0h2m1 0h1M5 16.5h3m1 0h1m4 0h4m1 0h4m2 0h1m1 0h2M2 17.5h1m1 0h2m2 0h1m5 0h2m1 0h1m2 0h4m1 0h2m1 0h1M0 18.5h1m1 0h1m1 0h4m3 0h1m1 0h1m2 0h1m3 0h1m6 0h2M1 19.5h1m1 0h3m1 0h4m1 0h1m2 0h1m1 0h4m4 0h1m1 0h1M0 20.5h1m1 0h1m2 0h4m1 0h1m1 0h1m4 0h1m2 0h5M8 21.5h3m1 0h2m2 0h1m3 0h1m3 0h1m1 0h3M0 22.5h7m2 0h4m1 0h1m1 0h1m2 0h2m1 0h1m1 0h2m1 0h2M0 23.5h1m5 0h1m2 0h3m1 0h3m1 0h1m2 0h1m3 0h2m1 0h1M0 24.5h1m1 0h3m1 0h1m1 0h2m4 0h1m2 0h2m1 0h5m3 0h1M0 25.5h1m1 0h3m1 0h1m3 0h2m1 0h2m1 0h1m7 0h1m1 0h3M0 26.5h1m1 0h3m1 0h1m1 0h1m1 0h1m6 0h1m2 0h2m1 0h3m2 0h1M0 27.5h1m5 0h1m2 0h1m1 0h1m2 0h2m1 0h1m1 0h2m3 0h1m2 0h1M0 28.5h7m1 0h3m1 0h1m1 0h1m1 0h2m1 0h2m1 0h1m1 0h2m1 0h2"/>
  </svg>

  <!-- "SCAN ME" -->
  <text x="170" y="382" text-anchor="middle"
        font-family="Inter, sans-serif" font-size="8.5" font-weight="500"
        letter-spacing="3" fill="#c4a670">
    SCAN ME
  </text>
</svg>
